<svg xmlns="http://www.w3.org/2000/svg" xmlns:xlink="http://www.w3.org/1999/xlink" width="1080" zoomAndPan="magnify" viewBox="0 0 810 1012.49997" height="1350" preserveAspectRatio="xMidYMid meet" version="1.0"><defs><clipPath id="c50521cdeb"><path d="M 81.160156 181.582031 L 730.339844 181.582031 L 730.339844 830.761719 L 81.160156 830.761719 Z M 81.160156 181.582031 " clip-rule="nonzero"/></clipPath></defs><g clip-path="url(#c50521cdeb)"><path fill="#000000" d="M 405.695312 181.554688 C 226.441406 181.554688 81.132812 326.863281 81.132812 506.117188 C 81.132812 685.371094 226.441406 830.679688 405.695312 830.679688 C 584.949219 830.679688 730.257812 685.371094 730.257812 506.117188 C 730.257812 326.863281 584.949219 181.554688 405.695312 181.554688 Z M 405.695312 272.4375 C 470.234375 272.4375 522.542969 324.742188 522.542969 389.285156 C 522.542969 453.824219 470.234375 506.128906 405.695312 506.128906 C 341.15625 506.128906 288.847656 453.808594 288.847656 389.285156 C 288.847656 324.757812 341.15625 272.4375 405.695312 272.4375 Z M 405.695312 752.800781 C 322.738281 752.800781 249.53125 711.726562 204.8125 648.941406 C 249.53125 586.15625 322.738281 545.085938 405.695312 545.085938 C 488.652344 545.085938 561.859375 586.15625 606.578125 648.941406 C 561.859375 711.726562 488.652344 752.800781 405.695312 752.800781 Z M 405.695312 752.800781 " fill-opacity="1" fill-rule="nonzero"/></g></svg>